<mxfile host="app.diagrams.net" modified="2021-03-26T15:07:24.221Z" agent="5.0 (Windows NT 10.0; WOW64) AppleWebKit/537.36 (KHTML, like Gecko) Chrome/88.0.4324.182 YaBrowser/21.2.4.172 Yowser/2.5 Safari/537.36" etag="KzLgEGLEUeigAxBlVXm4" version="14.5.1" type="github">
  <diagram id="EMp8i1ytYOoWYOSHFc4I" name="Page-1">
    <mxGraphModel dx="868" dy="453" grid="1" gridSize="10" guides="1" tooltips="1" connect="1" arrows="1" fold="1" page="1" pageScale="1" pageWidth="827" pageHeight="1169" math="0" shadow="0">
      <root>
        <mxCell id="0" />
        <mxCell id="1" parent="0" />
        <mxCell id="BPmMlELdBAgBM8hU0nrf-12" value="" style="edgeStyle=orthogonalEdgeStyle;rounded=0;orthogonalLoop=1;jettySize=auto;html=1;" parent="1" source="BPmMlELdBAgBM8hU0nrf-1" target="BPmMlELdBAgBM8hU0nrf-11" edge="1">
          <mxGeometry relative="1" as="geometry">
            <Array as="points">
              <mxPoint x="220" y="280" />
            </Array>
          </mxGeometry>
        </mxCell>
        <mxCell id="BPmMlELdBAgBM8hU0nrf-14" value="" style="edgeStyle=orthogonalEdgeStyle;rounded=0;orthogonalLoop=1;jettySize=auto;html=1;fontSize=14;exitX=0.5;exitY=0;exitDx=0;exitDy=0;exitPerimeter=0;" parent="1" source="BPmMlELdBAgBM8hU0nrf-1" target="BPmMlELdBAgBM8hU0nrf-13" edge="1">
          <mxGeometry relative="1" as="geometry">
            <Array as="points">
              <mxPoint x="270" y="190" />
              <mxPoint x="270" y="160" />
              <mxPoint x="360" y="160" />
            </Array>
          </mxGeometry>
        </mxCell>
        <mxCell id="qnxIxUHPnRa2tCpQ2nH0-5" value="" style="edgeStyle=orthogonalEdgeStyle;rounded=0;orthogonalLoop=1;jettySize=auto;html=1;" edge="1" parent="1" source="BPmMlELdBAgBM8hU0nrf-1" target="qnxIxUHPnRa2tCpQ2nH0-4">
          <mxGeometry relative="1" as="geometry" />
        </mxCell>
        <mxCell id="BPmMlELdBAgBM8hU0nrf-1" value="&lt;font color=&quot;#222222&quot; style=&quot;background-color: rgb(255 , 252 , 253)&quot;&gt;Пользователь&lt;/font&gt;" style="shape=umlActor;verticalLabelPosition=bottom;verticalAlign=top;html=1;outlineConnect=0;labelBorderColor=none;" parent="1" vertex="1">
          <mxGeometry x="220" y="190" width="50" height="90" as="geometry" />
        </mxCell>
        <mxCell id="qnxIxUHPnRa2tCpQ2nH0-3" value="" style="edgeStyle=orthogonalEdgeStyle;rounded=0;orthogonalLoop=1;jettySize=auto;html=1;" edge="1" parent="1" source="BPmMlELdBAgBM8hU0nrf-2" target="qnxIxUHPnRa2tCpQ2nH0-2">
          <mxGeometry relative="1" as="geometry">
            <Array as="points">
              <mxPoint x="220" y="515" />
              <mxPoint x="220" y="480" />
            </Array>
          </mxGeometry>
        </mxCell>
        <mxCell id="qnxIxUHPnRa2tCpQ2nH0-7" value="" style="edgeStyle=orthogonalEdgeStyle;rounded=0;orthogonalLoop=1;jettySize=auto;html=1;" edge="1" parent="1" source="BPmMlELdBAgBM8hU0nrf-2" target="qnxIxUHPnRa2tCpQ2nH0-6">
          <mxGeometry relative="1" as="geometry" />
        </mxCell>
        <mxCell id="qnxIxUHPnRa2tCpQ2nH0-9" value="" style="edgeStyle=orthogonalEdgeStyle;rounded=0;orthogonalLoop=1;jettySize=auto;html=1;" edge="1" parent="1" source="BPmMlELdBAgBM8hU0nrf-2" target="qnxIxUHPnRa2tCpQ2nH0-8">
          <mxGeometry relative="1" as="geometry">
            <Array as="points">
              <mxPoint x="380" y="510" />
            </Array>
          </mxGeometry>
        </mxCell>
        <mxCell id="qnxIxUHPnRa2tCpQ2nH0-11" value="" style="edgeStyle=orthogonalEdgeStyle;rounded=0;orthogonalLoop=1;jettySize=auto;html=1;fontSize=14;" edge="1" parent="1" source="BPmMlELdBAgBM8hU0nrf-2" target="qnxIxUHPnRa2tCpQ2nH0-10">
          <mxGeometry relative="1" as="geometry">
            <Array as="points">
              <mxPoint x="395" y="490" />
              <mxPoint x="395" y="510" />
            </Array>
          </mxGeometry>
        </mxCell>
        <mxCell id="qnxIxUHPnRa2tCpQ2nH0-17" value="" style="edgeStyle=orthogonalEdgeStyle;rounded=0;orthogonalLoop=1;jettySize=auto;html=1;fontSize=14;" edge="1" parent="1" source="BPmMlELdBAgBM8hU0nrf-2" target="qnxIxUHPnRa2tCpQ2nH0-16">
          <mxGeometry relative="1" as="geometry">
            <Array as="points">
              <mxPoint x="265" y="460" />
              <mxPoint x="360" y="460" />
            </Array>
          </mxGeometry>
        </mxCell>
        <mxCell id="BPmMlELdBAgBM8hU0nrf-2" value="Администратор&lt;br&gt;" style="shape=umlActor;verticalLabelPosition=bottom;verticalAlign=top;html=1;outlineConnect=0;" parent="1" vertex="1">
          <mxGeometry x="240" y="470" width="50" height="90" as="geometry" />
        </mxCell>
        <mxCell id="BPmMlELdBAgBM8hU0nrf-11" value="Регистрация&amp;nbsp;&lt;br&gt;в&lt;br&gt;приложении&lt;br&gt;" style="ellipse;whiteSpace=wrap;html=1;verticalAlign=middle;fontSize=14;horizontal=1;" parent="1" vertex="1">
          <mxGeometry x="60" y="70" width="120" height="80" as="geometry" />
        </mxCell>
        <mxCell id="BPmMlELdBAgBM8hU0nrf-13" value="Выбор категории магазинов" style="ellipse;whiteSpace=wrap;html=1;verticalAlign=middle;fontSize=15;" parent="1" vertex="1">
          <mxGeometry x="300" y="50" width="120" height="80" as="geometry" />
        </mxCell>
        <mxCell id="qnxIxUHPnRa2tCpQ2nH0-1" value="" style="endArrow=classic;html=1;exitX=0.25;exitY=0.1;exitDx=0;exitDy=0;exitPerimeter=0;" edge="1" parent="1" source="BPmMlELdBAgBM8hU0nrf-2" target="BPmMlELdBAgBM8hU0nrf-1">
          <mxGeometry width="50" height="50" relative="1" as="geometry">
            <mxPoint x="390" y="460" as="sourcePoint" />
            <mxPoint x="253" y="390" as="targetPoint" />
            <Array as="points" />
          </mxGeometry>
        </mxCell>
        <mxCell id="qnxIxUHPnRa2tCpQ2nH0-2" value="Поиск товара и цены" style="ellipse;whiteSpace=wrap;html=1;verticalAlign=middle;fontSize=14;" vertex="1" parent="1">
          <mxGeometry x="40" y="440" width="120" height="80" as="geometry" />
        </mxCell>
        <mxCell id="qnxIxUHPnRa2tCpQ2nH0-4" value="&lt;font style=&quot;font-size: 14px&quot;&gt;Поиск товара с более низкой ценой рядом с местом жительства&lt;/font&gt;" style="ellipse;whiteSpace=wrap;html=1;verticalAlign=middle;" vertex="1" parent="1">
          <mxGeometry x="492.5" y="120" width="135" height="90" as="geometry" />
        </mxCell>
        <mxCell id="qnxIxUHPnRa2tCpQ2nH0-6" value="Добавление товара и цены&lt;br style=&quot;font-size: 14px;&quot;&gt;" style="ellipse;whiteSpace=wrap;html=1;verticalAlign=middle;fontSize=14;" vertex="1" parent="1">
          <mxGeometry x="110" y="585" width="120" height="80" as="geometry" />
        </mxCell>
        <mxCell id="qnxIxUHPnRa2tCpQ2nH0-8" value="Удаление товара и цены" style="ellipse;whiteSpace=wrap;html=1;verticalAlign=middle;fontSize=14;" vertex="1" parent="1">
          <mxGeometry x="320" y="560" width="120" height="80" as="geometry" />
        </mxCell>
        <mxCell id="qnxIxUHPnRa2tCpQ2nH0-10" value="Авторизоваться в системе" style="ellipse;whiteSpace=wrap;html=1;verticalAlign=middle;fontSize=14;" vertex="1" parent="1">
          <mxGeometry x="500" y="470" width="120" height="80" as="geometry" />
        </mxCell>
        <mxCell id="qnxIxUHPnRa2tCpQ2nH0-16" value="&lt;span style=&quot;font-size: 14px;&quot;&gt;Выдача полномочий&lt;/span&gt;" style="ellipse;whiteSpace=wrap;html=1;verticalAlign=middle;fontSize=14;" vertex="1" parent="1">
          <mxGeometry x="300" y="320" width="120" height="80" as="geometry" />
        </mxCell>
      </root>
    </mxGraphModel>
  </diagram>
</mxfile>
